<svg width="141" height="70" viewBox="0 0 141 70" fill="none" xmlns="http://www.w3.org/2000/svg">
<path d="M42.4435 21.9255H45.5525L57.9884 43.7192H54.8794L42.4435 21.9255Z" fill="#FFDEA7"/>
<path d="M96.5845 0H99.6935L112.129 21.7937H109.02L96.5845 0Z" fill="#FFDEA7"/>
<path d="M77.9306 0H99.6935L77.9306 43.5875H56.1677L77.9306 0Z" fill="#FFDEA7"/>
<path d="M23.5167 21.9363H45.4003L23.5167 65.4816H1.63311L23.5167 21.9363Z" fill="#FFDEA7"/>
<path d="M21.8836 25.2104H43.7672L21.8836 68.7556H0L21.8836 25.2104Z" fill="#FFDEA7"/>
<path d="M37.8418 69.1111V68.3539C38.4223 68.3233 38.8195 68.1933 39.0334 67.9638C39.2472 67.719 39.3618 67.3901 39.3771 66.9771C39.4076 66.5487 39.4229 66.0669 39.4229 65.5314V55.6185C39.4229 55.3125 39.4305 55.0219 39.4458 54.7465C39.4611 54.4559 39.4764 54.1958 39.4916 53.9664C39.2167 53.9816 38.9417 53.9969 38.6667 54.0122C38.3918 54.0275 38.1168 54.0428 37.8418 54.0581V53.0485C38.6973 53.0332 39.5604 53.0179 40.4311 53.0026C41.3171 52.9873 42.2031 52.9949 43.0892 53.0255C44.5709 53.0408 45.7625 53.2168 46.6638 53.5533C47.5803 53.8746 48.2525 54.3411 48.6802 54.9531C49.1079 55.5497 49.3218 56.2763 49.3218 57.133C49.3371 57.7296 49.2225 58.3415 48.9781 58.9687C48.7489 59.5806 48.3212 60.1313 47.6949 60.6209C47.0838 61.1104 46.1978 61.4775 45.0369 61.7223C45.3424 61.9365 45.6097 62.2118 45.8389 62.5484C46.068 62.8849 46.3277 63.275 46.6179 63.7187L48.1761 66.1739C48.4358 66.587 48.6878 66.9618 48.9323 67.2983C49.1767 67.6196 49.4593 67.8796 49.7801 68.0785C50.1009 68.2621 50.4981 68.3539 50.9716 68.3539V69.1111H48.0844C47.6414 68.7134 47.2672 68.3156 46.9616 67.9179C46.6714 67.5201 46.3659 67.0689 46.0451 66.564L44.5098 64.1087C44.3112 63.7875 44.0821 63.4203 43.8224 63.0073C43.578 62.579 43.2954 62.2195 42.9746 61.9288C42.7302 61.9441 42.4705 61.9518 42.1955 61.9518C41.9358 61.9518 41.6761 61.9441 41.4164 61.9288V66.3805C41.4164 66.7935 41.4088 67.153 41.3935 67.459C41.3935 67.7496 41.3782 67.9944 41.3477 68.1933C41.531 68.178 41.7143 68.1703 41.8976 68.1703C42.0809 68.155 42.2643 68.1397 42.4476 68.1244C42.6309 68.1091 42.8142 68.1015 42.9975 68.1015V69.1111H37.8418ZM42.8371 61.0798C43.6773 61.0492 44.4105 60.9115 45.0369 60.6668C45.6785 60.422 46.1826 60.0319 46.5492 59.4965C46.9158 58.9611 47.0991 58.2574 47.0991 57.3854C47.0991 56.8041 47.0151 56.2993 46.8471 55.8709C46.6943 55.4273 46.4499 55.0601 46.1138 54.7695C45.7777 54.4788 45.35 54.2647 44.8306 54.127C44.3112 53.974 43.7002 53.8975 42.9975 53.8975C42.4323 53.8975 42.0351 54.0122 41.806 54.2417C41.5921 54.4712 41.4699 54.7924 41.4393 55.2055C41.4241 55.6032 41.4164 56.0774 41.4164 56.6282V61.0339C41.6609 61.0492 41.89 61.0645 42.1039 61.0798C42.333 61.0951 42.5774 61.0951 42.8371 61.0798Z" fill="#FFDEA7"/>
<path d="M60.8918 63.1679C60.8918 62.4948 60.8001 62.013 60.6168 61.7223C60.4335 61.4316 60.1433 61.2557 59.7461 61.1945C59.3489 61.1333 58.8219 61.118 58.165 61.1486L56.4923 61.2175V66.4723C56.4923 66.8853 56.4847 67.2371 56.4694 67.5278C56.4694 67.8185 56.4541 68.0632 56.4235 68.2621L60.8001 68.1933C61.4723 68.178 62.0528 68.0709 62.5416 67.872C63.0304 67.6578 63.4123 67.2907 63.6873 66.7706C63.9623 66.2504 64.0998 65.5391 64.0998 64.6365H64.8788L64.7414 69.1111H52.9177V68.3539C53.4982 68.3233 53.8954 68.1933 54.1092 67.9638C54.3231 67.719 54.4377 67.3901 54.4529 66.9771C54.4835 66.5487 54.4988 66.0669 54.4988 65.5314V55.6185C54.4988 55.3125 54.5064 55.0219 54.5217 54.7465C54.537 54.4559 54.5522 54.1958 54.5675 53.9664C54.2925 53.9816 54.0176 53.9969 53.7426 54.0122C53.4676 54.0275 53.1927 54.0428 52.9177 54.0581V53.0485H63.9394L64.0539 57.0641H63.2978C63.2978 56.1616 63.1603 55.4808 62.8853 55.0219C62.6104 54.5477 62.2361 54.2341 61.7625 54.0811C61.3042 53.9128 60.7849 53.8363 60.2044 53.8516L58.2338 53.8975C57.6685 53.9128 57.2637 54.0199 57.0193 54.2188C56.7749 54.4176 56.6221 54.7159 56.561 55.1137C56.5152 55.4961 56.4923 56.0009 56.4923 56.6282V60.2996L60.8001 60.3226L60.6397 58.3492H61.648V63.1679H60.8918Z" fill="#FFDEA7"/>
<path d="M67.8593 69.1111V68.3539C68.4398 68.3233 68.837 68.1933 69.0508 67.9638C69.2647 67.719 69.3793 67.3901 69.3945 66.9771C69.4251 66.5487 69.4404 66.0669 69.4404 65.5314V55.6185C69.4404 55.3125 69.448 55.0219 69.4633 54.7465C69.4786 54.4559 69.4938 54.1958 69.5091 53.9664C69.2341 53.9816 68.9592 53.9969 68.6842 54.0122C68.4092 54.0275 68.1343 54.0428 67.8593 54.0581V53.0485H78.4914L78.606 57.0641H77.8498C77.8498 56.1616 77.7047 55.4808 77.4145 55.0219C77.1242 54.5477 76.7423 54.2341 76.2688 54.0811C75.7952 53.9128 75.2682 53.8363 74.6877 53.8516L73.015 53.8975C72.4497 53.9128 72.0602 54.0505 71.8463 54.3105C71.6325 54.5553 71.5103 54.8842 71.4797 55.2972C71.4492 55.7103 71.4339 56.1845 71.4339 56.7199V60.6668L75.4209 60.6897L75.2605 58.6933H76.2688V63.5351H75.5355C75.5355 62.8467 75.4362 62.3572 75.2376 62.0665C75.0543 61.7758 74.7641 61.5999 74.3669 61.5387C73.9697 61.4775 73.4503 61.4622 72.8087 61.4928L71.4339 61.5617V66.3805C71.4339 66.7935 71.4263 67.153 71.411 67.459C71.411 67.7496 71.3957 67.9944 71.3652 68.1933C71.6248 68.178 71.8845 68.1703 72.1442 68.1703C72.4039 68.155 72.6636 68.1397 72.9233 68.1244C73.183 68.1091 73.4427 68.1015 73.7024 68.1015V69.1111H67.8593Z" fill="#FFDEA7"/>
<path d="M85.6831 53.8057C85.1789 53.8057 84.8123 53.9128 84.5832 54.127C84.3693 54.3411 84.2395 54.5936 84.1936 54.8842C84.1478 55.1596 84.1249 55.4043 84.1249 55.6185V61.4011C84.1249 62.2577 84.1784 63.0915 84.2853 63.9022C84.4075 64.6977 84.629 65.4167 84.9498 66.0592C85.2706 66.7017 85.7442 67.2142 86.3705 67.5966C87.0121 67.9791 87.8446 68.1703 88.8681 68.1703C89.968 68.1703 90.8616 67.9102 91.549 67.3901C92.2517 66.87 92.7635 66.151 93.0843 65.2331C93.4204 64.3153 93.5961 63.2597 93.6113 62.0665L93.6801 55.6185C93.6801 55.3125 93.6877 55.0219 93.703 54.7465C93.7183 54.4559 93.7335 54.1958 93.7488 53.9664C93.4738 53.9816 93.1989 53.9969 92.9239 54.0122C92.6642 54.0275 92.3969 54.0428 92.1219 54.0581V53.0485H96.3839V53.8057C95.8034 53.821 95.4063 53.951 95.1924 54.1958C94.9785 54.4406 94.8563 54.7695 94.8258 55.1825C94.8105 55.5956 94.7952 56.0774 94.7799 56.6282L94.7341 61.9518C94.7341 62.9461 94.6272 63.8946 94.4133 64.7971C94.1995 65.6997 93.8481 66.5028 93.3593 67.2065C92.8857 67.9102 92.2518 68.4686 91.4574 68.8816C90.6783 69.2794 89.7159 69.4783 88.5702 69.4783C87.3481 69.4783 86.317 69.3176 85.4768 68.9964C84.6519 68.6751 83.9874 68.1779 83.4833 67.5048C82.9945 66.8317 82.6431 65.9827 82.4293 64.9578C82.2154 63.9328 82.1085 62.709 82.1085 61.2863V56.6282C82.1085 56.2304 82.1161 55.7638 82.1314 55.2284C82.1619 54.6777 82.1848 54.257 82.2001 53.9664C81.9251 53.9816 81.6502 53.9969 81.3752 54.0122C81.1002 54.0122 80.8253 54.0199 80.5503 54.0352V53.0485H85.6831V53.8057Z" fill="#FFDEA7"/>
<path d="M106.402 69.4783C104.874 69.4783 103.522 69.157 102.346 68.5145C101.17 67.872 100.253 66.9465 99.5962 65.738C98.9393 64.5294 98.6109 63.0914 98.6109 61.424C98.6109 60.3379 98.7713 59.2823 99.0921 58.2574C99.4282 57.2171 99.9246 56.2763 100.582 55.4349C101.254 54.5936 102.086 53.9281 103.079 53.4386C104.087 52.9338 105.256 52.6813 106.585 52.6813C107.135 52.6813 107.693 52.7349 108.258 52.842C108.823 52.9337 109.365 53.0791 109.885 53.2779C110.419 53.4615 110.9 53.6833 111.328 53.9434L111.237 52.842H112.497V58.0967H111.672C111.611 57.133 111.351 56.3222 110.893 55.6644C110.45 54.9913 109.869 54.4788 109.151 54.127C108.433 53.7751 107.631 53.5992 106.745 53.5992C105.936 53.5992 105.172 53.7828 104.454 54.1499C103.751 54.5018 103.125 55.0066 102.575 55.6644C102.04 56.3069 101.62 57.0718 101.315 57.9591C101.009 58.8463 100.856 59.8254 100.856 60.8962C100.856 62.3342 101.116 63.6192 101.636 64.7513C102.155 65.8833 102.873 66.7706 103.789 67.4131C104.721 68.0556 105.791 68.3768 106.997 68.3768C107.41 68.3768 107.838 68.3386 108.281 68.2621C108.739 68.1856 109.19 68.0632 109.633 67.8949C110.091 67.7114 110.519 67.4896 110.916 67.2295V64.43C110.916 64.0629 110.916 63.6957 110.916 63.3286C110.916 62.9461 110.916 62.5713 110.916 62.2042C110.656 62.2195 110.389 62.2348 110.114 62.2501C109.839 62.2654 109.571 62.2807 109.312 62.296V61.2863H114.49V62.0436C114.063 62.0436 113.734 62.1583 113.505 62.3878C113.276 62.6019 113.116 62.8696 113.024 63.1909C112.932 63.4968 112.879 63.8028 112.863 64.1087C112.848 64.3994 112.841 64.6212 112.841 64.7742V68.285H112.222C111.977 68.285 111.641 68.3309 111.214 68.4227C110.786 68.5145 110.297 68.6675 109.747 68.8816C109.274 69.0652 108.724 69.2105 108.097 69.3176C107.471 69.4247 106.906 69.4783 106.402 69.4783Z" fill="#FFDEA7"/>
<path d="M122.069 53.8057C121.504 53.821 121.107 53.951 120.877 54.1958C120.664 54.4406 120.541 54.7695 120.511 55.1825C120.496 55.5956 120.488 56.0774 120.488 56.6282V66.3805C120.488 66.7935 120.48 67.153 120.465 67.459C120.465 67.7496 120.45 67.9944 120.419 68.1933C120.694 68.178 120.969 68.1627 121.244 68.1474C121.519 68.1321 121.794 68.1168 122.069 68.1015V69.1111H116.913V68.3539C117.494 68.3233 117.891 68.1933 118.105 67.9638C118.319 67.719 118.433 67.3901 118.449 66.9771C118.479 66.5487 118.494 66.0669 118.494 65.5314V55.6185C118.494 55.3125 118.502 55.0219 118.517 54.7465C118.533 54.4559 118.548 54.1958 118.563 53.9664C118.288 53.9816 118.013 53.9969 117.738 54.0122C117.463 54.0275 117.188 54.0428 116.913 54.0581V53.0485H122.069V53.8057Z" fill="#FFDEA7"/>
<path d="M133.026 69.4783C131.575 69.4783 130.33 69.2335 129.291 68.744C128.252 68.2544 127.404 67.6043 126.747 66.7935C126.106 65.9674 125.632 65.0572 125.327 64.0629C125.021 63.0685 124.868 62.0742 124.868 61.0798C124.868 60.116 125.029 59.1446 125.35 58.1656C125.67 57.1712 126.159 56.261 126.816 55.4349C127.488 54.6089 128.321 53.9434 129.314 53.4386C130.322 52.9338 131.498 52.6813 132.843 52.6813C134.248 52.6813 135.462 52.9338 136.486 53.4386C137.509 53.9434 138.35 54.6165 139.006 55.4579C139.679 56.284 140.175 57.1865 140.496 58.1656C140.832 59.1446 141 60.116 141 61.0798C141 62.0283 140.84 62.9997 140.519 63.994C140.198 64.9731 139.702 65.8833 139.029 66.7247C138.373 67.5507 137.548 68.2162 136.555 68.721C135.562 69.2258 134.385 69.4783 133.026 69.4783ZM133.072 68.5374C134.019 68.5374 134.844 68.3386 135.546 67.9408C136.249 67.5278 136.83 66.9847 137.288 66.3116C137.761 65.6232 138.113 64.866 138.342 64.0399C138.586 63.1985 138.709 62.3572 138.709 61.5158C138.709 60.5673 138.579 59.6265 138.319 58.6933C138.059 57.7602 137.677 56.9112 137.173 56.1463C136.669 55.3814 136.043 54.7695 135.294 54.3105C134.561 53.8363 133.721 53.5992 132.774 53.5992C131.827 53.5992 130.994 53.8057 130.276 54.2188C129.574 54.6318 128.985 55.1825 128.512 55.8709C128.054 56.544 127.702 57.3013 127.458 58.1426C127.229 58.9687 127.114 59.8101 127.114 60.6668C127.114 61.5081 127.229 62.3877 127.458 63.3056C127.702 64.2235 128.069 65.0802 128.558 65.8756C129.046 66.6711 129.665 67.3136 130.414 67.8032C131.162 68.2927 132.048 68.5374 133.072 68.5374Z" fill="#FFDEA7"/>
</svg>
